<svg viewBox="0 0 500 500" width="500" height="500" xmlns="http://www.w3.org/2000/svg"><circle cx="250" cy="250" r="250" fill="#4b7f52"/><path d="M110.359 350.295c-.433.433-1.197.87-2.29 1.31-.873.433-1.637.65-2.29.65-3.053 0-5.127-1.31-6.22-3.93a13.596 13.596 0 00-.65-1.63c-.22-.44-.55-.877-.99-1.31-.433-3.06-.05-5.407 1.15-7.04 1.2-1.64 2.673-2.46 4.42-2.46h.98c1.967.44 3.387 1.203 4.26 2.29 0 1.093.217 1.967.65 2.62.44.66.877 1.317 1.31 1.97.44 1.527.55 2.727.33 3.6-.22.433-.33.98-.33 1.64 0 .653-.11 1.417-.33 2.29zm158.14-83.49c-1.313.653-2.513.98-3.6.98-.873 0-1.53-.107-1.97-.32l-5.56-.99c-1.533-2.18-1.753-4.253-.66-6.22 1.093-1.96 2.84-3.05 5.24-3.27 1.307-1.313 2.617-1.97 3.93-1.97 1.093.66 1.857 1.153 2.29 1.48.44.327.877.6 1.31.82 0 .873.22 1.747.66 2.62.433 1.087.323 2.067-.33 2.94-.22 1.967-.657 3.277-1.31 3.93zm-158.46-127.03l.98-.98c1.747 0 3.273.327 4.58.98.873.433 1.637.707 2.29.82.66.107 1.533.38 2.62.82 1.967 1.307 2.95 2.397 2.95 3.27.653.22 1.253.44 1.8.66.547.213 1.147.54 1.8.98.653.213 1.31.377 1.97.49.653.107 1.527.16 2.62.16 1.74.44 2.72.66 2.94.66 3.06.653 5.023.98 5.89.98l3.93.98c.66.22 1.97.33 3.93.33 1.093 0 2.24-.053 3.44-.16 1.2-.113 2.347-.28 3.44-.5 1.747-1.087 2.837-1.63 3.27-1.63 1.967-.44 3.277-.77 3.93-.99 2.4-.213 4.2-.32 5.4-.32 1.2 0 2.13-.11 2.79-.33.433 0 .977.053 1.63.16.653.113 1.31.17 1.97.17.873 0 2.183-.22 3.93-.66.653 0 1.853-.217 3.6-.65 1.747 0 3.057.11 3.93.33.433.213 1.633.32 3.6.32.873 0 1.747-.217 2.62-.65.653-.22 1.527-.33 2.62-.33.873 0 1.637-.11 2.29-.33h5.89c2.62 0 4.147.11 4.58.33 2.407.44 4.483.767 6.23.98 1.74.22 3.157.44 4.25.66 2.62 0 5.35.653 8.19 1.96 1.087-.22 2.83-.33 5.23-.33 2.407 0 4.81.273 7.21.82 2.4.547 4.473 1.583 6.22 3.11 4.147.66 7.203 2.733 9.17 6.22 2.4 1.533 4.143 3.5 5.23 5.9a29.923 29.923 0 002.13 3.6 55.04 55.04 0 012.13 3.27c.22 1.093.437 2.077.65 2.95.22.873.55 1.747.99 2.62.433 1.093.707 2.073.82 2.94.107.873.377 1.857.81 2.95a12.165 12.165 0 000 3.93c.873 2.4.983 5.563.33 9.49.22 1.747.22 2.95 0 3.61l-.98 2.29c-.22.653-.11 1.963.33 3.93.213 1.087.32 2.397.32 3.93-.433 1.527-.65 2.507-.65 2.94 0 .44-.11.877-.33 1.31-.433 2.84-.543 4.37-.33 4.59 0 1.307-.217 2.613-.65 3.92-.44 1.747-.66 3.167-.66 4.26-.433 1.307-.977 2.29-1.63 2.95-.44 1.747-1.04 3.22-1.8 4.42a20.152 20.152 0 01-2.79 3.43c-.433.873-.87 1.747-1.31 2.62a4.286 4.286 0 01-1.96 1.97c-1.307 1.307-2.397 2.833-3.27 4.58-1.967 2.84-4.587 5.35-7.86 7.53-4.367 4.367-9.06 7.203-14.08 8.51-1.093.66-2.403 1.153-3.93 1.48-1.527.327-3.053.6-4.58.82-2.62 1.087-4.257 1.63-4.91 1.63l-2.29.33c1.527 1.747 2.453 2.947 2.78 3.6.327.653.6 1.31.82 1.97.213.873.32 1.637.32 2.29s.22 1.307.66 1.96c3.273 5.02 4.473 9.823 3.6 14.41-.653 1.527-.763 2.837-.33 3.93.22 1.087.113 2.287-.32 3.6 0 1.967-.11 3.383-.33 4.25-.873 1.313-1.2 2.953-.98 4.92v3.27c0 1.093.053 2.293.16 3.6.107 1.313.49 2.187 1.15 2.62 0 .653.653 1.417 1.96 2.29 1.307 1.527 2.943 2.727 4.91 3.6l5.57 1.97c1.96.873 4.033 1.31 6.22 1.31 3.053 0 5.78-1.2 8.18-3.6 1.967-1.967 3.933-3.603 5.9-4.91a63.03 63.03 0 00.49-2.79c.107-.76.05-1.577-.17-2.45-.433-2.187-.65-4.043-.65-5.57-1.527-.653-2.783-1.143-3.77-1.47-.98-.327-2.343-.49-4.09-.49-1.307 0-2.617-.33-3.93-.99-.653-.653-1.09-1.307-1.31-1.96-.433-.22-.76-.437-.98-.65-.22-.22-.547-.55-.98-.99-.653-2.4-.6-4.583.16-6.55.767-1.96 1.693-3.703 2.78-5.23.873-.873 1.64-1.31 2.3-1.31.873-.44 1.8-.987 2.78-1.64.98-.653 2.017-1.527 3.11-2.62.433-.433 1.087-.65 1.96-.65 1.093 0 1.967.217 2.62.65 1.313-.653 2.513-.98 3.6-.98 1.313 0 2.733.327 4.26.98.873 1.093 1.857 1.967 2.95 2.62 1.087.653 2.177 1.2 3.27 1.64.873.433 1.637 1.413 2.29 2.94.44 1.313 1.097 2.297 1.97 2.95 1.087 2.18 1.63 3.817 1.63 4.91 0 .653.057 1.363.17 2.13.107.767.27 1.693.49 2.78 1.307 7.207.76 13.863-1.64 19.97-.653 1.313-.87 2.08-.65 2.3l-.99 2.45a4.173 4.173 0 01-.98 1.47c-.433.44-.707.933-.82 1.48a5.607 5.607 0 01-.49 1.47c-.873 1.093-1.747 1.967-2.62 2.62l-2.62 1.96c-2.4 1.093-4.253 2.513-5.56 4.26-1.093.44-2.02.823-2.78 1.15a47.42 47.42 0 00-2.46 1.14c-1.093.44-2.077.767-2.95.98-.873.22-1.853.44-2.94.66-.873.433-1.857.76-2.95.98-.22.22-.547.33-.98.33-.653.22-1.363.383-2.13.49a5.003 5.003 0 00-2.13.82c-.433.433-1.307.65-2.62.65-1.087 0-1.85-.107-2.29-.32l-1.96-.99c-1.967 0-3.823.437-5.57 1.31-1.307.22-2.617.33-3.93.33a17.2 17.2 0 00-1.63-.98c-.44-.22-.877-.44-1.31-.66-1.747-.433-3.057-1.087-3.93-1.96l-5.9-1.97c-.873 0-2.183-.217-3.93-.65a41.942 41.942 0 01-4.91-3.6c-1.527-1.313-2.833-3.06-3.92-5.24-.44-1.967-.987-3.277-1.64-3.93-.44-.873-.877-1.963-1.31-3.27.22-2.187 0-4.153-.66-5.9-.433-1.74-.433-3.377 0-4.91 0-1.96.11-3.54.33-4.74.22-1.2.547-2.457.98-3.77.44-2.62.333-4.803-.32-6.55.213-.873.103-2.183-.33-3.93-.653-.653-.763-1.853-.33-3.6-.433-2.18-.65-3.87-.65-5.07v-4.09c-.22-.873-.767-1.967-1.64-3.28-2.62-1.093-4.04-1.64-4.26-1.64-1.747-1.527-3-2.67-3.76-3.43-.767-.767-1.367-1.26-1.8-1.48l-3.93-1.96c-.22 0-.44.053-.66.16-.213.113-.54.17-.98.17-.653 0-1.527-.33-2.62-.99-.433-.213-.977-.32-1.63-.32-1.093 0-1.967.217-2.62.65-.873-.433-1.693-.707-2.46-.82a17.744 17.744 0 00-2.45-.16h-5.24c-4.147-1.093-7.967-1.64-11.46-1.64 0 3.06-.11 4.807-.33 5.24-.22 2.18 0 4.143.66 5.89.213.873.213 1.967 0 3.28 0 .873.217 2.183.65 3.93.22.873.383 1.58.49 2.12.107.547.16 1.15.16 1.81-.433 2.18-.597 3.597-.49 4.25.113.653.277 1.2.49 1.64.22.653.33 1.417.33 2.29v3.27c-.22.873-.22 1.857 0 2.95.873 1.747 1.31 2.84 1.31 3.28 0 1.74.163 3.103.49 4.09.327.98.71 2.017 1.15 3.11.433 1.093.76 2.073.98 2.94.22.873.44 1.857.66 2.95v1.64c0 .433.053 1.033.16 1.8.107.76.38 1.577.82 2.45 1.307 1.747 1.633 3.603.98 5.57v4.26l-3.6 5.56c-.22.44-.493.823-.82 1.15-.327.327-.71.707-1.15 1.14-1.087.22-2.177.877-3.27 1.97s-2.13 1.803-3.11 2.13c-.98.327-2.017.6-3.11.82l-3.27.98c-.873-.44-1.747-.66-2.62-.66-1.093 0-2.24-.053-3.44-.16-1.2-.107-2.127-.49-2.78-1.15-.44-.433-1.313-.87-2.62-1.31 0-1.307-.547-2.507-1.64-3.6-1.093-.22-1.857-.983-2.29-2.29-2.187-1.747-3.77-3.33-4.75-4.75s-1.47-3.33-1.47-5.73c-1.527-2.833-2.073-6.27-1.64-10.31.44-4.04 1.53-7.477 3.27-10.31-.433-.873-.323-1.637.33-2.29.873-3.713 1.2-6.88.98-9.5-.873-1.527-1.2-2.4-.98-2.62-.873-2.4-1.527-3.71-1.96-3.93-.873-1.307-1.093-2.617-.66-3.93.22-.433.33-1.307.33-2.62-.653-1.74-.763-4.14-.33-7.2l.98-7.2c0-1.313-.107-2.297-.32-2.95-.44-.653-.223-1.417.65-2.29-.433-3.053-.323-6 .33-8.84.22-2.4 0-5.237-.66-8.51.44-.873.66-2.403.66-4.59-.44-1.307-.003-2.613 1.31-3.92.653-2.407 1.143-4.317 1.47-5.73.327-1.42.6-2.677.82-3.77-.433-1.093-.707-2.51-.82-4.25-.107-1.747.057-3.277.49-4.59v-4.58c-.213-1.093-.103-2.73.33-4.91.653-2.62.98-4.257.98-4.91-.433-.66-.433-1.533 0-2.62.22-.66.33-1.423.33-2.29-.653-2.84-.87-4.48-.65-4.92.213-1.087.213-2.067 0-2.94-.22-.873-.55-1.857-.99-2.95l-.98-2.95c-.22-4.147-1.637-8.073-4.25-11.78-.66-.44-1.427-1.097-2.3-1.97-.873-.433-1.963-.87-3.27-1.31-2.18-.433-3.817-1.197-4.91-2.29-.873-1.307-2.183-2.507-3.93-3.6-1.967-1.967-3.603-4.257-4.91-6.87-.44-.873-.44-1.747 0-2.62.22-1.093.22-2.077 0-2.95-.44-3.053-.003-5.237 1.31-6.55a21.161 21.161 0 002.29-1.96l.65-.66c1.313-1.307 2.08-2.723 2.3-4.25 1.307-.22 2.507-.877 3.6-1.97 1.307-.653 2.617-.98 3.93-.98zm33.06 39.94v.98c0 1.533-.217 2.517-.65 2.95-.44 1.527-.603 2.673-.49 3.44.107.76.38 1.47.82 2.13l.98 4.58c.22.44.383.823.49 1.15.107.327.27.707.49 1.14.22.22.11.983-.33 2.29.44.66.66 1.37.66 2.13v2.13c-.44 1.307-.44 3.053 0 5.24 0 .873.053 1.583.16 2.13.113.547.17.927.17 1.14.433 3.06.703 5.68.81 7.86.113 2.18.06 4.363-.16 6.55-.653 3.927-.327 7.853.98 11.78-1.087 2.407-1.193 4.1-.32 5.08.873.98 2.18 1.69 3.92 2.13h5.57c2.18 0 3.707.107 4.58.32 1.093-.213 2.023-.32 2.79-.32h2.45c.653.213 1.747.32 3.28.32h1.63c3.06-.433 6.337-1.087 9.83-1.96 2.18-.433 3.817-.65 4.91-.65 1.527 0 3.163.217 4.91.65h7.85c.44 0 .877.053 1.31.16.44.113.877.17 1.31.17.873 0 1.967-.22 3.28-.66 1.747 0 3.057-.163 3.93-.49.873-.327 1.853-.707 2.94-1.14.66-.873 1.26-1.583 1.8-2.13.547-.547.82-1.04.82-1.48.44-.653 1.203-1.523 2.29-2.61l1.97-1.97c1.307-1.967 2.18-2.95 2.62-2.95 1.087-1.527 1.74-2.617 1.96-3.27.22-.653.44-1.2.66-1.64.213-.433.593-1.087 1.14-1.96a12.928 12.928 0 011.8-2.29c.66-.44 1.37-1.04 2.13-1.8.767-.767 1.15-1.803 1.15-3.11a8.233 8.233 0 010-3.28c.22-1.087.547-1.96.98-2.62.22-.653.383-1.527.49-2.62.107-1.087-.057-2.177-.49-3.27-.433-1.747-.543-2.947-.33-3.6.653-1.747.873-3.167.66-4.26l-.98-4.25v-3.28c-.873-2.62-1.31-4.693-1.31-6.22l-.99-3.6c-.433-.433-.87-.817-1.31-1.15-.433-.327-.87-.707-1.31-1.14a203.473 203.473 0 00-2.29-2.29c-1.96 0-3.487-.437-4.58-1.31-.873-.44-1.693-.66-2.46-.66-.76 0-1.687-.11-2.78-.33-1.093 0-1.857.11-2.29.33h-1.64c-1.307 0-2.833-.217-4.58-.65-.873-.22-2.073-.33-3.6-.33h-1.31c-2.187.433-3.66.707-4.42.82-.767.107-1.367.05-1.8-.17-.44-.213-.987-.32-1.64-.32-.653 0-1.2.107-1.64.32-1.087.22-2.067.44-2.94.66-.873.22-1.747.33-2.62.33-.66 0-1.427.217-2.3.65-3.487.653-5.45 1.2-5.89 1.64-.22.22-.657.33-1.31.33s-1.307-.33-1.96-.99c-.44.44-1.203.66-2.29.66-1.093 0-2.513-.22-4.26-.66h-8.51c-1.967 0-3.387-.107-4.26-.32-1.093 0-1.967-.11-2.62-.33-3.707 0-5.89 1.31-6.55 3.93-.873.653-1.31 1.307-1.31 1.96zm11.46 7.21l2.62-1.31c1.527-1.093 3.057-1.75 4.59-1.97 2.4 1.313 3.98 2.24 4.74 2.78.767.547 1.587 1.367 2.46 2.46.433 1.527.65 2.947.65 4.26 0 1.307-.217 2.833-.65 4.58-1.747 3.713-4.477 5.57-8.19 5.57-.433 0-1.743-.22-3.93-.66-2.18-2.62-3.38-5.403-3.6-8.35-.213-2.947.223-5.4 1.31-7.36zm32.09 3.27v1.64a8.807 8.807 0 00-1.97 2.94c-2.4.22-3.873.167-4.42-.16-.54-.327-.92-.927-1.14-1.8-.44-1.313-.66-2.297-.66-2.95a20.96 20.96 0 012.3-3.11c.867-.98 1.957-1.47 3.27-1.47 1.967 1.96 2.84 3.597 2.62 4.91zm83.81 55.33c0-2.62.163-4.313.49-5.08.327-.76.71-1.14 1.15-1.14 1.967 0 3.277 1.09 3.93 3.27.433.873.107 1.857-.98 2.95-.66.653-1.427.98-2.3.98-.433 0-1.197-.327-2.29-.98zm11.458 84.8c-1.96.433-2.94.76-2.94.98-.873.873-1.53 1.31-1.97 1.31-1.96 0-3.16-1.093-3.6-3.28-.433-2.18-.213-3.817.66-4.91.434-4.36 2.397-6.65 5.89-6.87 2.62.22 4.147 1.967 4.58 5.24 0 1.527-.216 3-.65 4.42-.44 1.413-1.096 2.45-1.97 3.11zm54.02-22.92c-.213-1.527-.866-2.62-1.96-3.28-.653-1.087-.98-2.287-.98-3.6.434-3.707 1.034-6.27 1.8-7.69.76-1.42 1.797-2.13 3.11-2.13.22 0 .384.053.49.16.107.113.38.17.82.17l1.96 1.96c2.187 2.187 3.607 4.043 4.26 5.57.22.433.437.923.65 1.47.22.547.55 1.147.99 1.8 1.087 2.62.757 4.587-.99 5.9-.873.873-1.853 1.31-2.94 1.31-2.186-.66-3.823-.99-4.91-.99-.66 0-1.426-.217-2.3-.65zm29.47 45.83c-1.093-.433-2.62-1.413-4.58-2.94-1.966-1.093-3.713-1.64-5.24-1.64-2.186 0-3.606-.163-4.26-.49-.653-.327-1.526-.71-2.62-1.15-.433.22-1.086.33-1.96.33-.873 0-1.53-.11-1.97-.33-1.086-.213-2.286-.54-3.6-.98-1.306 0-2.56.057-3.76.17a12.25 12.25 0 00-3.44.81l-7.2 2.95a470.582 470.582 0 01-4.26 1.8c-1.306.547-2.726.93-4.26 1.15-.866.873-2.72 1.31-5.56 1.31-1.093 0-2.02.053-2.78.16-.766.107-1.586.27-2.46.49-2.62-.433-4.476-.76-5.57-.98a11.934 11.934 0 01-2.94-.98l-4.26-1.97c-1.746-2.833-2.893-4.797-3.44-5.89-.54-1.093-.593-2.403-.16-3.93-.433-3.273-.213-5.347.66-6.22.874-.873 1.417-1.747 1.63-2.62l.98-2.62c.22-.433.387-.813.5-1.14.107-.333.27-.717.49-1.15-.44-1.967-.223-3.603.65-4.91.874-1.527.874-3.273 0-5.24-.433-2.62-.213-4.583.66-5.89-1.746-3.273-1.966-5.567-.66-6.88 1.527-1.527 2.4-3.163 2.62-4.91 1.094-1.527 1.857-2.78 2.29-3.76.44-.987.987-2.023 1.64-3.11 0-1.093.11-2.187.33-3.28.214-1.093.104-2.403-.33-3.93-.22-1.087-.656-1.85-1.31-2.29-1.093-2.84-1.31-5.023-.65-6.55.434-2.18.65-3.707.65-4.58v-1.64c0-1.307-.11-2.343-.33-3.11-.213-.76-.32-1.687-.32-2.78l-1.97-6.22c-.433-2.187-.87-4.26-1.31-6.22a278.6 278.6 0 01-.98-4.59c.434-.653.65-2.29.65-4.91l-.98-7.85a77.9 77.9 0 01-.49-4.1c-.106-1.2-.27-2.453-.49-3.76 0-2.84.11-4.477.33-4.91-.66-3.273-.553-6.877.32-10.81a42.7 42.7 0 00.99-5.4c.214-1.853.43-3.873.65-6.06-.433-1.96-.543-3.05-.33-3.27-.653-1.967-1.09-4.15-1.31-6.55-.213-2.4-.32-4.69-.32-6.87-.44-.873-.66-1.747-.66-2.62 0-.66-.216-1.423-.65-2.29.434-1.747.65-3.003.65-3.77 0-.767.22-1.477.66-2.13.874-.873 1.2-2.073.98-3.6l2.29-3.6c.44-1.093.93-2.077 1.47-2.95.547-.873 1.04-1.527 1.48-1.96.874-.653 1.747-1.853 2.62-3.6a42.712 42.712 0 002.94-1.31c.874-.44 1.747-.987 2.62-1.64 1.094.22 2.73.33 4.91.33 1.314-1.313 2.407-1.97 3.28-1.97.434 0 .76.11.98.33a9.792 9.792 0 002.46 2.29c.98.653 1.687.98 2.12.98a150.302 150.302 0 003.28 4.75 45.616 45.616 0 012.29 3.44c2.18 3.493 3.654 6.277 4.42 8.35.76 2.073.924 4.093.49 6.06a28.85 28.85 0 011.15 3.6c.327 1.307.27 2.507-.17 3.6.654 3.707.6 7.09-.16 10.15-.766 3.053-1.913 5.89-3.44 8.51-.653 1.307-1.306 3.217-1.96 5.73-.66 2.507-.99 4.527-.99 6.06v2.94c-.213 1.093-.32 2.84-.32 5.24-.22 1.093-.33 2.077-.33 2.95v2.62c-.22 1.527-.22 2.4 0 2.62 0 1.307-.11 3.323-.33 6.05a143.81 143.81 0 01-.98 8.68c-.433 3.053-.76 6.053-.98 9-.22 2.947-.546 5.077-.98 6.39.434 2.62.487 5.293.16 8.02-.326 2.727-.71 5.29-1.15 7.69.22.44.384 1.097.49 1.97.114.873-.05 1.527-.49 1.96.44.873.877 2.4 1.31 4.58v4.92c.22.653.55 1.417.99 2.29.214.433.104 1.307-.33 2.62-.44 1.087-.44 2.067 0 2.94.22.873 0 1.64-.66 2.3.22.433.55 1.523.99 3.27 0 .873.217 2.183.65 3.93.874 1.307 1.42 2.18 1.64 2.62.214.433.43.87.65 1.31a34.077 34.077 0 003.6 4.25c1.314 1.313 2.734 2.187 4.26 2.62h2.62c2.4 0 4.037-.11 4.91-.33.654-.213 1.527-.32 2.62-.32 1.747 0 3.6.327 5.56.98.66.22 1.427.33 2.3.33.874 0 1.964-.11 3.27-.33 1.307-.22 2.397-.547 3.27-.98.44 0 .987-.11 1.64-.33.654-.22 1.31-.33 1.97-.33 1.74-.213 2.994-.32 3.76-.32.767 0 1.477-.11 2.13-.33.434-.22 1.087-.33 1.96-.33.874 0 1.53.11 1.97.33 2.4 1.527 5.02 2.29 7.86 2.29 1.527 0 2.617-.327 3.27-.98.22-.873 1.094-1.53 2.62-1.97 1.094 0 1.967-.327 2.62-.98.22-.22.547-.33.98-.33 1.307 0 2.397.437 3.27 1.31 1.747 1.967 3.057 3.497 3.93 4.59.874 1.087 1.53 1.85 1.97 2.29l1.31 1.31 1.31 1.31c.654 2.4.76 4.8.32 7.2a41.172 41.172 0 00-.49 3.11 28.95 28.95 0 00-.16 3.11c-.873.873-1.31 1.637-1.31 2.29-.44 1.093-.986 1.857-1.64 2.29-1.526 1.747-2.18 2.62-1.96 2.62v.99c-1.093.873-2.02 1.637-2.78 2.29a48.994 48.994 0 01-2.46 1.96 18.8 18.8 0 00-2.46 1.48c-.76.54-1.466 1.14-2.12 1.8-1.093.213-1.86.32-2.3.32h-.98c-2.833.66-4.686.99-5.56.99-1.093 0-2.023-.11-2.79-.33-.76-.22-1.686-.547-2.78-.98-3.713-1.533-6.66-2.3-8.84-2.3zm-8.51-60.56c1.094 0 2.13.217 3.11.65.98.433 1.58 1.197 1.8 2.29 0 1.093-.326 2.187-.98 3.28-.66 1.087-1.533 1.63-2.62 1.63-.873 0-1.53-.107-1.97-.32l-1.63-3.28c-.66-1.747-.716-2.783-.17-3.11.547-.327 1.367-.707 2.46-1.14z" style="white-space:pre" fill="#fff"/></svg>